<mxfile host="app.diagrams.net" modified="2023-10-03T14:09:22.432Z" agent="Mozilla/5.0 (Windows NT 10.0; Win64; x64) AppleWebKit/537.36 (KHTML, like Gecko) Chrome/117.0.0.0 Safari/537.36" etag="R2-kJqquld9lhRfHztpU" version="21.6.3" type="github">
  <diagram name="PÃ¡gina-1" id="qYTaqpHgXXdfk7ogM8Xo">
    <mxGraphModel dx="-1377" dy="3064" grid="1" gridSize="10" guides="1" tooltips="1" connect="1" arrows="1" fold="1" page="1" pageScale="1" pageWidth="827" pageHeight="1169" math="0" shadow="0">
      <root>
        <mxCell id="0" />
        <mxCell id="1" parent="0" />
        <mxCell id="HLCbXC__rA61MA5NDTQK-59" value="Private subnet" style="points=[[0,0],[0.25,0],[0.5,0],[0.75,0],[1,0],[1,0.25],[1,0.5],[1,0.75],[1,1],[0.75,1],[0.5,1],[0.25,1],[0,1],[0,0.75],[0,0.5],[0,0.25]];outlineConnect=0;gradientColor=none;html=1;whiteSpace=wrap;fontSize=12;fontStyle=0;container=1;pointerEvents=0;collapsible=0;recursiveResize=0;shape=mxgraph.aws4.group;grIcon=mxgraph.aws4.group_security_group;grStroke=0;strokeColor=#147EBA;fillColor=#E6F2F8;verticalAlign=top;align=left;spacingLeft=30;fontColor=#147EBA;dashed=0;" vertex="1" parent="1">
          <mxGeometry x="7450" y="-120" width="790" height="334" as="geometry" />
        </mxCell>
        <mxCell id="HLCbXC__rA61MA5NDTQK-60" value="&lt;p style=&quot;language:es-CL;margin-top:0pt;margin-bottom:0pt;margin-left:0in;&lt;br/&gt;text-align:left;direction:ltr;unicode-bidi:embed;vertical-align:bottom;&lt;br/&gt;mso-line-break-override:none;word-break:normal;punctuation-wrap:hanging&quot;&gt;Amazon&lt;br/&gt;RDS for PostgreSQL&lt;/p&gt;" style="sketch=0;outlineConnect=0;fontColor=#232F3E;gradientColor=none;fillColor=#2E27AD;strokeColor=none;dashed=0;verticalLabelPosition=bottom;verticalAlign=top;align=center;html=1;fontSize=12;fontStyle=0;aspect=fixed;pointerEvents=1;shape=mxgraph.aws4.rds_postgresql_instance;" vertex="1" parent="HLCbXC__rA61MA5NDTQK-59">
          <mxGeometry x="368" y="120" width="78" height="78" as="geometry" />
        </mxCell>
        <mxCell id="HLCbXC__rA61MA5NDTQK-8" value="Private subnet" style="points=[[0,0],[0.25,0],[0.5,0],[0.75,0],[1,0],[1,0.25],[1,0.5],[1,0.75],[1,1],[0.75,1],[0.5,1],[0.25,1],[0,1],[0,0.75],[0,0.5],[0,0.25]];outlineConnect=0;gradientColor=none;html=1;whiteSpace=wrap;fontSize=12;fontStyle=0;container=1;pointerEvents=0;collapsible=0;recursiveResize=0;shape=mxgraph.aws4.group;grIcon=mxgraph.aws4.group_security_group;grStroke=0;strokeColor=#147EBA;fillColor=#E6F2F8;verticalAlign=top;align=left;spacingLeft=30;fontColor=#147EBA;dashed=0;" vertex="1" parent="1">
          <mxGeometry x="6000" y="-500" width="590" height="334" as="geometry" />
        </mxCell>
        <mxCell id="HLCbXC__rA61MA5NDTQK-12" value="" style="sketch=0;points=[[0,0,0],[0.25,0,0],[0.5,0,0],[0.75,0,0],[1,0,0],[0,1,0],[0.25,1,0],[0.5,1,0],[0.75,1,0],[1,1,0],[0,0.25,0],[0,0.5,0],[0,0.75,0],[1,0.25,0],[1,0.5,0],[1,0.75,0]];outlineConnect=0;fontColor=#232F3E;gradientColor=#F78E04;gradientDirection=north;fillColor=#D05C17;strokeColor=#ffffff;dashed=0;verticalLabelPosition=bottom;verticalAlign=top;align=center;html=1;fontSize=12;fontStyle=0;aspect=fixed;shape=mxgraph.aws4.resourceIcon;resIcon=mxgraph.aws4.ec2;" vertex="1" parent="HLCbXC__rA61MA5NDTQK-8">
          <mxGeometry x="59.99791208791248" y="99.99830508474577" width="78" height="78" as="geometry" />
        </mxCell>
        <mxCell id="HLCbXC__rA61MA5NDTQK-13" value="" style="sketch=0;points=[[0,0,0],[0.25,0,0],[0.5,0,0],[0.75,0,0],[1,0,0],[0,1,0],[0.25,1,0],[0.5,1,0],[0.75,1,0],[1,1,0],[0,0.25,0],[0,0.5,0],[0,0.75,0],[1,0.25,0],[1,0.5,0],[1,0.75,0]];outlineConnect=0;fontColor=#232F3E;gradientColor=#F78E04;gradientDirection=north;fillColor=#D05C17;strokeColor=#ffffff;dashed=0;verticalLabelPosition=bottom;verticalAlign=top;align=center;html=1;fontSize=12;fontStyle=0;aspect=fixed;shape=mxgraph.aws4.resourceIcon;resIcon=mxgraph.aws4.ec2;" vertex="1" parent="HLCbXC__rA61MA5NDTQK-8">
          <mxGeometry x="249.99791208791248" y="99.99830508474577" width="78" height="78" as="geometry" />
        </mxCell>
        <mxCell id="HLCbXC__rA61MA5NDTQK-14" value="" style="sketch=0;points=[[0,0,0],[0.25,0,0],[0.5,0,0],[0.75,0,0],[1,0,0],[0,1,0],[0.25,1,0],[0.5,1,0],[0.75,1,0],[1,1,0],[0,0.25,0],[0,0.5,0],[0,0.75,0],[1,0.25,0],[1,0.5,0],[1,0.75,0]];outlineConnect=0;fontColor=#232F3E;gradientColor=#F78E04;gradientDirection=north;fillColor=#D05C17;strokeColor=#ffffff;dashed=0;verticalLabelPosition=bottom;verticalAlign=top;align=center;html=1;fontSize=12;fontStyle=0;aspect=fixed;shape=mxgraph.aws4.resourceIcon;resIcon=mxgraph.aws4.ec2;" vertex="1" parent="HLCbXC__rA61MA5NDTQK-8">
          <mxGeometry x="439.9979120879125" y="99.99830508474577" width="78" height="78" as="geometry" />
        </mxCell>
        <mxCell id="HLCbXC__rA61MA5NDTQK-25" value="APP SERVER" style="text;html=1;align=center;verticalAlign=middle;resizable=0;points=[];autosize=1;strokeColor=none;fillColor=none;" vertex="1" parent="HLCbXC__rA61MA5NDTQK-8">
          <mxGeometry x="49" y="70" width="100" height="30" as="geometry" />
        </mxCell>
        <mxCell id="HLCbXC__rA61MA5NDTQK-27" value="Interoperability Server" style="text;html=1;align=center;verticalAlign=middle;resizable=0;points=[];autosize=1;strokeColor=none;fillColor=none;" vertex="1" parent="HLCbXC__rA61MA5NDTQK-8">
          <mxGeometry x="219" y="70" width="140" height="30" as="geometry" />
        </mxCell>
        <mxCell id="HLCbXC__rA61MA5NDTQK-26" value="BI Server" style="text;html=1;align=center;verticalAlign=middle;resizable=0;points=[];autosize=1;strokeColor=none;fillColor=none;" vertex="1" parent="HLCbXC__rA61MA5NDTQK-8">
          <mxGeometry x="444" y="70" width="70" height="30" as="geometry" />
        </mxCell>
        <mxCell id="HLCbXC__rA61MA5NDTQK-78" value="&lt;b style=&quot;font-size: 22px;&quot;&gt;DEV&amp;nbsp;&lt;span style=&quot;font-family: Calibri;&quot;&gt;Clinic&lt;/span&gt;&lt;span style=&quot;font-family: Calibri;&quot;&gt; + UCI&lt;/span&gt;&lt;/b&gt;" style="text;html=1;strokeColor=none;fillColor=none;align=center;verticalAlign=middle;whiteSpace=wrap;rounded=0;" vertex="1" parent="HLCbXC__rA61MA5NDTQK-8">
          <mxGeometry x="133" y="20" width="307" height="30" as="geometry" />
        </mxCell>
        <mxCell id="HLCbXC__rA61MA5NDTQK-16" value="Private subnet" style="points=[[0,0],[0.25,0],[0.5,0],[0.75,0],[1,0],[1,0.25],[1,0.5],[1,0.75],[1,1],[0.75,1],[0.5,1],[0.25,1],[0,1],[0,0.75],[0,0.5],[0,0.25]];outlineConnect=0;gradientColor=none;html=1;whiteSpace=wrap;fontSize=12;fontStyle=0;container=1;pointerEvents=0;collapsible=0;recursiveResize=0;shape=mxgraph.aws4.group;grIcon=mxgraph.aws4.group_security_group;grStroke=0;strokeColor=#147EBA;fillColor=#E6F2F8;verticalAlign=top;align=left;spacingLeft=30;fontColor=#147EBA;dashed=0;" vertex="1" parent="1">
          <mxGeometry x="6000" y="-120" width="590" height="334" as="geometry" />
        </mxCell>
        <mxCell id="HLCbXC__rA61MA5NDTQK-21" value="&lt;p style=&quot;language:es-CL;margin-top:0pt;margin-bottom:0pt;margin-left:0in;&lt;br/&gt;text-align:left;direction:ltr;unicode-bidi:embed;vertical-align:bottom;&lt;br/&gt;mso-line-break-override:none;word-break:normal;punctuation-wrap:hanging&quot;&gt;Amazon&lt;br/&gt;RDS for PostgreSQL&lt;/p&gt;" style="sketch=0;outlineConnect=0;fontColor=#232F3E;gradientColor=none;fillColor=#2E27AD;strokeColor=none;dashed=0;verticalLabelPosition=bottom;verticalAlign=top;align=center;html=1;fontSize=12;fontStyle=0;aspect=fixed;pointerEvents=1;shape=mxgraph.aws4.rds_postgresql_instance;" vertex="1" parent="HLCbXC__rA61MA5NDTQK-16">
          <mxGeometry x="250" y="120" width="78" height="78" as="geometry" />
        </mxCell>
        <mxCell id="HLCbXC__rA61MA5NDTQK-22" style="edgeStyle=orthogonalEdgeStyle;rounded=0;orthogonalLoop=1;jettySize=auto;html=1;" edge="1" parent="1" source="HLCbXC__rA61MA5NDTQK-12" target="HLCbXC__rA61MA5NDTQK-21">
          <mxGeometry relative="1" as="geometry">
            <Array as="points">
              <mxPoint x="6099" y="-230" />
              <mxPoint x="6289" y="-230" />
            </Array>
          </mxGeometry>
        </mxCell>
        <mxCell id="HLCbXC__rA61MA5NDTQK-23" style="edgeStyle=orthogonalEdgeStyle;rounded=0;orthogonalLoop=1;jettySize=auto;html=1;" edge="1" parent="1" source="HLCbXC__rA61MA5NDTQK-13" target="HLCbXC__rA61MA5NDTQK-21">
          <mxGeometry relative="1" as="geometry">
            <Array as="points">
              <mxPoint x="6289" y="-210" />
              <mxPoint x="6289" y="-210" />
            </Array>
          </mxGeometry>
        </mxCell>
        <mxCell id="HLCbXC__rA61MA5NDTQK-24" style="edgeStyle=orthogonalEdgeStyle;rounded=0;orthogonalLoop=1;jettySize=auto;html=1;" edge="1" parent="1" source="HLCbXC__rA61MA5NDTQK-14" target="HLCbXC__rA61MA5NDTQK-21">
          <mxGeometry relative="1" as="geometry">
            <Array as="points">
              <mxPoint x="6479" y="-230" />
              <mxPoint x="6290" y="-230" />
            </Array>
          </mxGeometry>
        </mxCell>
        <mxCell id="HLCbXC__rA61MA5NDTQK-40" value="Private subnet" style="points=[[0,0],[0.25,0],[0.5,0],[0.75,0],[1,0],[1,0.25],[1,0.5],[1,0.75],[1,1],[0.75,1],[0.5,1],[0.25,1],[0,1],[0,0.75],[0,0.5],[0,0.25]];outlineConnect=0;gradientColor=none;html=1;whiteSpace=wrap;fontSize=12;fontStyle=0;container=1;pointerEvents=0;collapsible=0;recursiveResize=0;shape=mxgraph.aws4.group;grIcon=mxgraph.aws4.group_security_group;grStroke=0;strokeColor=#147EBA;fillColor=#E6F2F8;verticalAlign=top;align=left;spacingLeft=30;fontColor=#147EBA;dashed=0;" vertex="1" parent="1">
          <mxGeometry x="6710" y="-500" width="590" height="334" as="geometry" />
        </mxCell>
        <mxCell id="HLCbXC__rA61MA5NDTQK-41" value="" style="sketch=0;points=[[0,0,0],[0.25,0,0],[0.5,0,0],[0.75,0,0],[1,0,0],[0,1,0],[0.25,1,0],[0.5,1,0],[0.75,1,0],[1,1,0],[0,0.25,0],[0,0.5,0],[0,0.75,0],[1,0.25,0],[1,0.5,0],[1,0.75,0]];outlineConnect=0;fontColor=#232F3E;gradientColor=#F78E04;gradientDirection=north;fillColor=#D05C17;strokeColor=#ffffff;dashed=0;verticalLabelPosition=bottom;verticalAlign=top;align=center;html=1;fontSize=12;fontStyle=0;aspect=fixed;shape=mxgraph.aws4.resourceIcon;resIcon=mxgraph.aws4.ec2;" vertex="1" parent="HLCbXC__rA61MA5NDTQK-40">
          <mxGeometry x="59.99791208791248" y="99.99830508474577" width="78" height="78" as="geometry" />
        </mxCell>
        <mxCell id="HLCbXC__rA61MA5NDTQK-42" value="" style="sketch=0;points=[[0,0,0],[0.25,0,0],[0.5,0,0],[0.75,0,0],[1,0,0],[0,1,0],[0.25,1,0],[0.5,1,0],[0.75,1,0],[1,1,0],[0,0.25,0],[0,0.5,0],[0,0.75,0],[1,0.25,0],[1,0.5,0],[1,0.75,0]];outlineConnect=0;fontColor=#232F3E;gradientColor=#F78E04;gradientDirection=north;fillColor=#D05C17;strokeColor=#ffffff;dashed=0;verticalLabelPosition=bottom;verticalAlign=top;align=center;html=1;fontSize=12;fontStyle=0;aspect=fixed;shape=mxgraph.aws4.resourceIcon;resIcon=mxgraph.aws4.ec2;" vertex="1" parent="HLCbXC__rA61MA5NDTQK-40">
          <mxGeometry x="249.99791208791248" y="99.99830508474577" width="78" height="78" as="geometry" />
        </mxCell>
        <mxCell id="HLCbXC__rA61MA5NDTQK-43" value="" style="sketch=0;points=[[0,0,0],[0.25,0,0],[0.5,0,0],[0.75,0,0],[1,0,0],[0,1,0],[0.25,1,0],[0.5,1,0],[0.75,1,0],[1,1,0],[0,0.25,0],[0,0.5,0],[0,0.75,0],[1,0.25,0],[1,0.5,0],[1,0.75,0]];outlineConnect=0;fontColor=#232F3E;gradientColor=#F78E04;gradientDirection=north;fillColor=#D05C17;strokeColor=#ffffff;dashed=0;verticalLabelPosition=bottom;verticalAlign=top;align=center;html=1;fontSize=12;fontStyle=0;aspect=fixed;shape=mxgraph.aws4.resourceIcon;resIcon=mxgraph.aws4.ec2;" vertex="1" parent="HLCbXC__rA61MA5NDTQK-40">
          <mxGeometry x="439.9979120879125" y="99.99830508474577" width="78" height="78" as="geometry" />
        </mxCell>
        <mxCell id="HLCbXC__rA61MA5NDTQK-44" value="APP SERVER" style="text;html=1;align=center;verticalAlign=middle;resizable=0;points=[];autosize=1;strokeColor=none;fillColor=none;" vertex="1" parent="HLCbXC__rA61MA5NDTQK-40">
          <mxGeometry x="49" y="70" width="100" height="30" as="geometry" />
        </mxCell>
        <mxCell id="HLCbXC__rA61MA5NDTQK-45" value="Interoperability Server" style="text;html=1;align=center;verticalAlign=middle;resizable=0;points=[];autosize=1;strokeColor=none;fillColor=none;" vertex="1" parent="HLCbXC__rA61MA5NDTQK-40">
          <mxGeometry x="219" y="70" width="140" height="30" as="geometry" />
        </mxCell>
        <mxCell id="HLCbXC__rA61MA5NDTQK-46" value="BI Server" style="text;html=1;align=center;verticalAlign=middle;resizable=0;points=[];autosize=1;strokeColor=none;fillColor=none;" vertex="1" parent="HLCbXC__rA61MA5NDTQK-40">
          <mxGeometry x="444" y="70" width="70" height="30" as="geometry" />
        </mxCell>
        <mxCell id="HLCbXC__rA61MA5NDTQK-79" value="&lt;b style=&quot;font-size: 22px;&quot;&gt;PRE&amp;nbsp;&lt;span style=&quot;font-family: Calibri;&quot;&gt;Clinic&lt;/span&gt;&lt;span style=&quot;font-family: Calibri;&quot;&gt; + UCI&lt;/span&gt;&lt;/b&gt;" style="text;html=1;strokeColor=none;fillColor=none;align=center;verticalAlign=middle;whiteSpace=wrap;rounded=0;" vertex="1" parent="HLCbXC__rA61MA5NDTQK-40">
          <mxGeometry x="138" y="20" width="307" height="30" as="geometry" />
        </mxCell>
        <mxCell id="HLCbXC__rA61MA5NDTQK-47" value="Private subnet" style="points=[[0,0],[0.25,0],[0.5,0],[0.75,0],[1,0],[1,0.25],[1,0.5],[1,0.75],[1,1],[0.75,1],[0.5,1],[0.25,1],[0,1],[0,0.75],[0,0.5],[0,0.25]];outlineConnect=0;gradientColor=none;html=1;whiteSpace=wrap;fontSize=12;fontStyle=0;container=1;pointerEvents=0;collapsible=0;recursiveResize=0;shape=mxgraph.aws4.group;grIcon=mxgraph.aws4.group_security_group;grStroke=0;strokeColor=#147EBA;fillColor=#E6F2F8;verticalAlign=top;align=left;spacingLeft=30;fontColor=#147EBA;dashed=0;" vertex="1" parent="1">
          <mxGeometry x="6710" y="-120" width="590" height="334" as="geometry" />
        </mxCell>
        <mxCell id="HLCbXC__rA61MA5NDTQK-48" value="&lt;p style=&quot;language:es-CL;margin-top:0pt;margin-bottom:0pt;margin-left:0in;&lt;br/&gt;text-align:left;direction:ltr;unicode-bidi:embed;vertical-align:bottom;&lt;br/&gt;mso-line-break-override:none;word-break:normal;punctuation-wrap:hanging&quot;&gt;Amazon&lt;br/&gt;RDS for PostgreSQL&lt;/p&gt;" style="sketch=0;outlineConnect=0;fontColor=#232F3E;gradientColor=none;fillColor=#2E27AD;strokeColor=none;dashed=0;verticalLabelPosition=bottom;verticalAlign=top;align=center;html=1;fontSize=12;fontStyle=0;aspect=fixed;pointerEvents=1;shape=mxgraph.aws4.rds_postgresql_instance;" vertex="1" parent="HLCbXC__rA61MA5NDTQK-47">
          <mxGeometry x="250" y="120" width="78" height="78" as="geometry" />
        </mxCell>
        <mxCell id="HLCbXC__rA61MA5NDTQK-49" style="edgeStyle=orthogonalEdgeStyle;rounded=0;orthogonalLoop=1;jettySize=auto;html=1;" edge="1" parent="1" source="HLCbXC__rA61MA5NDTQK-41" target="HLCbXC__rA61MA5NDTQK-48">
          <mxGeometry relative="1" as="geometry">
            <Array as="points">
              <mxPoint x="6809" y="-230" />
              <mxPoint x="6999" y="-230" />
            </Array>
          </mxGeometry>
        </mxCell>
        <mxCell id="HLCbXC__rA61MA5NDTQK-50" style="edgeStyle=orthogonalEdgeStyle;rounded=0;orthogonalLoop=1;jettySize=auto;html=1;" edge="1" parent="1" source="HLCbXC__rA61MA5NDTQK-42" target="HLCbXC__rA61MA5NDTQK-48">
          <mxGeometry relative="1" as="geometry">
            <Array as="points">
              <mxPoint x="6999" y="-210" />
              <mxPoint x="6999" y="-210" />
            </Array>
          </mxGeometry>
        </mxCell>
        <mxCell id="HLCbXC__rA61MA5NDTQK-51" style="edgeStyle=orthogonalEdgeStyle;rounded=0;orthogonalLoop=1;jettySize=auto;html=1;" edge="1" parent="1" source="HLCbXC__rA61MA5NDTQK-43" target="HLCbXC__rA61MA5NDTQK-48">
          <mxGeometry relative="1" as="geometry">
            <Array as="points">
              <mxPoint x="7189" y="-230" />
              <mxPoint x="7000" y="-230" />
            </Array>
          </mxGeometry>
        </mxCell>
        <mxCell id="HLCbXC__rA61MA5NDTQK-52" value="Private subnet" style="points=[[0,0],[0.25,0],[0.5,0],[0.75,0],[1,0],[1,0.25],[1,0.5],[1,0.75],[1,1],[0.75,1],[0.5,1],[0.25,1],[0,1],[0,0.75],[0,0.5],[0,0.25]];outlineConnect=0;gradientColor=none;html=1;whiteSpace=wrap;fontSize=12;fontStyle=0;container=1;pointerEvents=0;collapsible=0;recursiveResize=0;shape=mxgraph.aws4.group;grIcon=mxgraph.aws4.group_security_group;grStroke=0;strokeColor=#147EBA;fillColor=#E6F2F8;verticalAlign=top;align=left;spacingLeft=30;fontColor=#147EBA;dashed=0;" vertex="1" parent="1">
          <mxGeometry x="7443" y="-650" width="800" height="494" as="geometry" />
        </mxCell>
        <mxCell id="HLCbXC__rA61MA5NDTQK-70" value="" style="rounded=1;arcSize=10;dashed=1;strokeColor=#ff0000;fillColor=none;gradientColor=none;dashPattern=8 4;strokeWidth=2;" vertex="1" parent="HLCbXC__rA61MA5NDTQK-52">
          <mxGeometry x="40" y="190" width="292" height="250.5" as="geometry" />
        </mxCell>
        <mxCell id="HLCbXC__rA61MA5NDTQK-53" value="" style="sketch=0;points=[[0,0,0],[0.25,0,0],[0.5,0,0],[0.75,0,0],[1,0,0],[0,1,0],[0.25,1,0],[0.5,1,0],[0.75,1,0],[1,1,0],[0,0.25,0],[0,0.5,0],[0,0.75,0],[1,0.25,0],[1,0.5,0],[1,0.75,0]];outlineConnect=0;fontColor=#232F3E;gradientColor=#F78E04;gradientDirection=north;fillColor=#D05C17;strokeColor=#ffffff;dashed=0;verticalLabelPosition=bottom;verticalAlign=top;align=center;html=1;fontSize=12;fontStyle=0;aspect=fixed;shape=mxgraph.aws4.resourceIcon;resIcon=mxgraph.aws4.ec2;" vertex="1" parent="HLCbXC__rA61MA5NDTQK-52">
          <mxGeometry x="59.99791208791248" y="339.99830508474577" width="78" height="78" as="geometry" />
        </mxCell>
        <mxCell id="HLCbXC__rA61MA5NDTQK-54" value="" style="sketch=0;points=[[0,0,0],[0.25,0,0],[0.5,0,0],[0.75,0,0],[1,0,0],[0,1,0],[0.25,1,0],[0.5,1,0],[0.75,1,0],[1,1,0],[0,0.25,0],[0,0.5,0],[0,0.75,0],[1,0.25,0],[1,0.5,0],[1,0.75,0]];outlineConnect=0;fontColor=#232F3E;gradientColor=#F78E04;gradientDirection=north;fillColor=#D05C17;strokeColor=#ffffff;dashed=0;verticalLabelPosition=bottom;verticalAlign=top;align=center;html=1;fontSize=12;fontStyle=0;aspect=fixed;shape=mxgraph.aws4.resourceIcon;resIcon=mxgraph.aws4.ec2;" vertex="1" parent="HLCbXC__rA61MA5NDTQK-52">
          <mxGeometry x="394.4979120879125" y="239.99830508474577" width="78" height="78" as="geometry" />
        </mxCell>
        <mxCell id="HLCbXC__rA61MA5NDTQK-55" value="" style="sketch=0;points=[[0,0,0],[0.25,0,0],[0.5,0,0],[0.75,0,0],[1,0,0],[0,1,0],[0.25,1,0],[0.5,1,0],[0.75,1,0],[1,1,0],[0,0.25,0],[0,0.5,0],[0,0.75,0],[1,0.25,0],[1,0.5,0],[1,0.75,0]];outlineConnect=0;fontColor=#232F3E;gradientColor=#F78E04;gradientDirection=north;fillColor=#D05C17;strokeColor=#ffffff;dashed=0;verticalLabelPosition=bottom;verticalAlign=top;align=center;html=1;fontSize=12;fontStyle=0;aspect=fixed;shape=mxgraph.aws4.resourceIcon;resIcon=mxgraph.aws4.ec2;" vertex="1" parent="HLCbXC__rA61MA5NDTQK-52">
          <mxGeometry x="656.9979120879125" y="239.99830508474577" width="78" height="78" as="geometry" />
        </mxCell>
        <mxCell id="HLCbXC__rA61MA5NDTQK-56" value="APP SERVER" style="text;html=1;align=center;verticalAlign=middle;resizable=0;points=[];autosize=1;strokeColor=none;fillColor=none;" vertex="1" parent="HLCbXC__rA61MA5NDTQK-52">
          <mxGeometry x="125" y="200" width="100" height="30" as="geometry" />
        </mxCell>
        <mxCell id="HLCbXC__rA61MA5NDTQK-57" value="Interoperability Server" style="text;html=1;align=center;verticalAlign=middle;resizable=0;points=[];autosize=1;strokeColor=none;fillColor=none;" vertex="1" parent="HLCbXC__rA61MA5NDTQK-52">
          <mxGeometry x="414.5" y="210" width="140" height="30" as="geometry" />
        </mxCell>
        <mxCell id="HLCbXC__rA61MA5NDTQK-58" value="BI Server" style="text;html=1;align=center;verticalAlign=middle;resizable=0;points=[];autosize=1;strokeColor=none;fillColor=none;" vertex="1" parent="HLCbXC__rA61MA5NDTQK-52">
          <mxGeometry x="661" y="210" width="70" height="30" as="geometry" />
        </mxCell>
        <mxCell id="HLCbXC__rA61MA5NDTQK-64" value="" style="sketch=0;points=[[0,0,0],[0.25,0,0],[0.5,0,0],[0.75,0,0],[1,0,0],[0,1,0],[0.25,1,0],[0.5,1,0],[0.75,1,0],[1,1,0],[0,0.25,0],[0,0.5,0],[0,0.75,0],[1,0.25,0],[1,0.5,0],[1,0.75,0]];outlineConnect=0;fontColor=#232F3E;gradientColor=#F78E04;gradientDirection=north;fillColor=#D05C17;strokeColor=#ffffff;dashed=0;verticalLabelPosition=bottom;verticalAlign=top;align=center;html=1;fontSize=12;fontStyle=0;aspect=fixed;shape=mxgraph.aws4.resourceIcon;resIcon=mxgraph.aws4.ec2;" vertex="1" parent="HLCbXC__rA61MA5NDTQK-52">
          <mxGeometry x="484.4979120879125" y="239.99830508474577" width="78" height="78" as="geometry" />
        </mxCell>
        <mxCell id="HLCbXC__rA61MA5NDTQK-65" value="" style="sketch=0;points=[[0,0,0],[0.25,0,0],[0.5,0,0],[0.75,0,0],[1,0,0],[0,1,0],[0.25,1,0],[0.5,1,0],[0.75,1,0],[1,1,0],[0,0.25,0],[0,0.5,0],[0,0.75,0],[1,0.25,0],[1,0.5,0],[1,0.75,0]];outlineConnect=0;fontColor=#232F3E;gradientColor=#F78E04;gradientDirection=north;fillColor=#D05C17;strokeColor=#ffffff;dashed=0;verticalLabelPosition=bottom;verticalAlign=top;align=center;html=1;fontSize=12;fontStyle=0;aspect=fixed;shape=mxgraph.aws4.resourceIcon;resIcon=mxgraph.aws4.ec2;" vertex="1" parent="HLCbXC__rA61MA5NDTQK-52">
          <mxGeometry x="146.99791208791248" y="339.99830508474577" width="78" height="78" as="geometry" />
        </mxCell>
        <mxCell id="HLCbXC__rA61MA5NDTQK-66" value="" style="sketch=0;points=[[0,0,0],[0.25,0,0],[0.5,0,0],[0.75,0,0],[1,0,0],[0,1,0],[0.25,1,0],[0.5,1,0],[0.75,1,0],[1,1,0],[0,0.25,0],[0,0.5,0],[0,0.75,0],[1,0.25,0],[1,0.5,0],[1,0.75,0]];outlineConnect=0;fontColor=#232F3E;gradientColor=#F78E04;gradientDirection=north;fillColor=#D05C17;strokeColor=#ffffff;dashed=0;verticalLabelPosition=bottom;verticalAlign=top;align=center;html=1;fontSize=12;fontStyle=0;aspect=fixed;shape=mxgraph.aws4.resourceIcon;resIcon=mxgraph.aws4.ec2;" vertex="1" parent="HLCbXC__rA61MA5NDTQK-52">
          <mxGeometry x="236.99791208791248" y="339.99830508474577" width="78" height="78" as="geometry" />
        </mxCell>
        <mxCell id="HLCbXC__rA61MA5NDTQK-67" value="" style="sketch=0;points=[[0,0,0],[0.25,0,0],[0.5,0,0],[0.75,0,0],[1,0,0],[0,1,0],[0.25,1,0],[0.5,1,0],[0.75,1,0],[1,1,0],[0,0.25,0],[0,0.5,0],[0,0.75,0],[1,0.25,0],[1,0.5,0],[1,0.75,0]];outlineConnect=0;fontColor=#232F3E;gradientColor=#F78E04;gradientDirection=north;fillColor=#D05C17;strokeColor=#ffffff;dashed=0;verticalLabelPosition=bottom;verticalAlign=top;align=center;html=1;fontSize=12;fontStyle=0;aspect=fixed;shape=mxgraph.aws4.resourceIcon;resIcon=mxgraph.aws4.ec2;" vertex="1" parent="HLCbXC__rA61MA5NDTQK-52">
          <mxGeometry x="59.99791208791248" y="249.99830508474577" width="78" height="78" as="geometry" />
        </mxCell>
        <mxCell id="HLCbXC__rA61MA5NDTQK-68" value="" style="sketch=0;points=[[0,0,0],[0.25,0,0],[0.5,0,0],[0.75,0,0],[1,0,0],[0,1,0],[0.25,1,0],[0.5,1,0],[0.75,1,0],[1,1,0],[0,0.25,0],[0,0.5,0],[0,0.75,0],[1,0.25,0],[1,0.5,0],[1,0.75,0]];outlineConnect=0;fontColor=#232F3E;gradientColor=#F78E04;gradientDirection=north;fillColor=#D05C17;strokeColor=#ffffff;dashed=0;verticalLabelPosition=bottom;verticalAlign=top;align=center;html=1;fontSize=12;fontStyle=0;aspect=fixed;shape=mxgraph.aws4.resourceIcon;resIcon=mxgraph.aws4.ec2;" vertex="1" parent="HLCbXC__rA61MA5NDTQK-52">
          <mxGeometry x="146.99791208791248" y="249.99830508474577" width="78" height="78" as="geometry" />
        </mxCell>
        <mxCell id="HLCbXC__rA61MA5NDTQK-69" value="" style="sketch=0;points=[[0,0,0],[0.25,0,0],[0.5,0,0],[0.75,0,0],[1,0,0],[0,1,0],[0.25,1,0],[0.5,1,0],[0.75,1,0],[1,1,0],[0,0.25,0],[0,0.5,0],[0,0.75,0],[1,0.25,0],[1,0.5,0],[1,0.75,0]];outlineConnect=0;fontColor=#232F3E;gradientColor=#F78E04;gradientDirection=north;fillColor=#D05C17;strokeColor=#ffffff;dashed=0;verticalLabelPosition=bottom;verticalAlign=top;align=center;html=1;fontSize=12;fontStyle=0;aspect=fixed;shape=mxgraph.aws4.resourceIcon;resIcon=mxgraph.aws4.ec2;" vertex="1" parent="HLCbXC__rA61MA5NDTQK-52">
          <mxGeometry x="236.99791208791248" y="249.99830508474577" width="78" height="78" as="geometry" />
        </mxCell>
        <mxCell id="HLCbXC__rA61MA5NDTQK-76" style="edgeStyle=orthogonalEdgeStyle;rounded=0;orthogonalLoop=1;jettySize=auto;html=1;endArrow=none;endFill=0;exitX=0.5;exitY=1;exitDx=0;exitDy=0;" edge="1" parent="HLCbXC__rA61MA5NDTQK-52" source="HLCbXC__rA61MA5NDTQK-70">
          <mxGeometry relative="1" as="geometry">
            <mxPoint x="417" y="630" as="targetPoint" />
            <Array as="points">
              <mxPoint x="186" y="520" />
              <mxPoint x="418" y="520" />
              <mxPoint x="418" y="630" />
            </Array>
          </mxGeometry>
        </mxCell>
        <mxCell id="HLCbXC__rA61MA5NDTQK-71" value="" style="rounded=1;arcSize=10;dashed=1;strokeColor=#ff0000;fillColor=none;gradientColor=none;dashPattern=8 4;strokeWidth=2;" vertex="1" parent="HLCbXC__rA61MA5NDTQK-52">
          <mxGeometry x="367" y="194" width="223" height="242.5" as="geometry" />
        </mxCell>
        <mxCell id="HLCbXC__rA61MA5NDTQK-74" value="" style="rounded=1;arcSize=10;dashed=1;strokeColor=#ff0000;fillColor=none;gradientColor=none;dashPattern=8 4;strokeWidth=2;" vertex="1" parent="HLCbXC__rA61MA5NDTQK-52">
          <mxGeometry x="621" y="190" width="150" height="242.5" as="geometry" />
        </mxCell>
        <mxCell id="HLCbXC__rA61MA5NDTQK-80" value="&lt;b style=&quot;font-size: 22px;&quot;&gt;PRO&amp;nbsp;&lt;span style=&quot;font-family: Calibri;&quot;&gt;Clinic&lt;/span&gt;&lt;span style=&quot;font-family: Calibri;&quot;&gt; + UCI&lt;/span&gt;&lt;/b&gt;" style="text;html=1;strokeColor=none;fillColor=none;align=center;verticalAlign=middle;whiteSpace=wrap;rounded=0;" vertex="1" parent="HLCbXC__rA61MA5NDTQK-52">
          <mxGeometry x="207" y="10" width="307" height="30" as="geometry" />
        </mxCell>
        <mxCell id="HLCbXC__rA61MA5NDTQK-73" style="edgeStyle=orthogonalEdgeStyle;rounded=0;orthogonalLoop=1;jettySize=auto;html=1;exitX=0.5;exitY=1;exitDx=0;exitDy=0;" edge="1" parent="1" source="HLCbXC__rA61MA5NDTQK-71">
          <mxGeometry relative="1" as="geometry">
            <mxPoint x="7860" as="targetPoint" />
            <Array as="points">
              <mxPoint x="7922" y="-130" />
              <mxPoint x="7860" y="-130" />
            </Array>
          </mxGeometry>
        </mxCell>
        <mxCell id="HLCbXC__rA61MA5NDTQK-77" style="edgeStyle=orthogonalEdgeStyle;rounded=0;orthogonalLoop=1;jettySize=auto;html=1;endArrow=none;endFill=0;exitX=0.594;exitY=1.003;exitDx=0;exitDy=0;exitPerimeter=0;" edge="1" parent="1" source="HLCbXC__rA61MA5NDTQK-74">
          <mxGeometry relative="1" as="geometry">
            <mxPoint x="7860" y="-10" as="targetPoint" />
            <mxPoint x="8064" y="-130" as="sourcePoint" />
            <Array as="points">
              <mxPoint x="8153" y="-130" />
              <mxPoint x="7861" y="-130" />
              <mxPoint x="7861" y="-10" />
            </Array>
          </mxGeometry>
        </mxCell>
        <mxCell id="HLCbXC__rA61MA5NDTQK-81" value="" style="sketch=0;outlineConnect=0;fontColor=#232F3E;gradientColor=none;fillColor=#4D27AA;strokeColor=none;dashed=0;verticalLabelPosition=bottom;verticalAlign=top;align=center;html=1;fontSize=12;fontStyle=0;aspect=fixed;pointerEvents=1;shape=mxgraph.aws4.application_load_balancer;" vertex="1" parent="1">
          <mxGeometry x="7568" y="-740" width="78" height="78" as="geometry" />
        </mxCell>
        <mxCell id="HLCbXC__rA61MA5NDTQK-82" style="edgeStyle=orthogonalEdgeStyle;rounded=0;orthogonalLoop=1;jettySize=auto;html=1;entryX=0.425;entryY=-0.002;entryDx=0;entryDy=0;entryPerimeter=0;" edge="1" parent="1" source="HLCbXC__rA61MA5NDTQK-81" target="HLCbXC__rA61MA5NDTQK-70">
          <mxGeometry relative="1" as="geometry" />
        </mxCell>
        <mxCell id="HLCbXC__rA61MA5NDTQK-85" value="" style="sketch=0;points=[[0,0,0],[0.25,0,0],[0.5,0,0],[0.75,0,0],[1,0,0],[0,1,0],[0.25,1,0],[0.5,1,0],[0.75,1,0],[1,1,0],[0,0.25,0],[0,0.5,0],[0,0.75,0],[1,0.25,0],[1,0.5,0],[1,0.75,0]];outlineConnect=0;fontColor=#232F3E;gradientColor=#F54749;gradientDirection=north;fillColor=#C7131F;strokeColor=#ffffff;dashed=0;verticalLabelPosition=bottom;verticalAlign=top;align=center;html=1;fontSize=12;fontStyle=0;aspect=fixed;shape=mxgraph.aws4.resourceIcon;resIcon=mxgraph.aws4.waf;shadow=1;labelBackgroundColor=#;fontFamily=Helvetica;" vertex="1" parent="1">
          <mxGeometry x="7310" y="-940" width="78" height="78" as="geometry" />
        </mxCell>
        <mxCell id="HLCbXC__rA61MA5NDTQK-191" style="edgeStyle=orthogonalEdgeStyle;rounded=0;orthogonalLoop=1;jettySize=auto;html=1;" edge="1" parent="1" target="HLCbXC__rA61MA5NDTQK-81">
          <mxGeometry relative="1" as="geometry">
            <mxPoint x="7395" y="-891" as="sourcePoint" />
          </mxGeometry>
        </mxCell>
        <mxCell id="HLCbXC__rA61MA5NDTQK-192" style="edgeStyle=orthogonalEdgeStyle;rounded=0;orthogonalLoop=1;jettySize=auto;html=1;" edge="1" parent="1" target="HLCbXC__rA61MA5NDTQK-188">
          <mxGeometry relative="1" as="geometry">
            <mxPoint x="7356" y="-852" as="sourcePoint" />
            <Array as="points">
              <mxPoint x="7356" y="519" />
            </Array>
          </mxGeometry>
        </mxCell>
        <mxCell id="HLCbXC__rA61MA5NDTQK-194" style="edgeStyle=orthogonalEdgeStyle;rounded=0;orthogonalLoop=1;jettySize=auto;html=1;entryX=0;entryY=0.5;entryDx=0;entryDy=0;entryPerimeter=0;" edge="1" parent="1" source="HLCbXC__rA61MA5NDTQK-89" target="HLCbXC__rA61MA5NDTQK-85">
          <mxGeometry relative="1" as="geometry" />
        </mxCell>
        <mxCell id="HLCbXC__rA61MA5NDTQK-89" value="" style="sketch=0;points=[[0,0,0],[0.25,0,0],[0.5,0,0],[0.75,0,0],[1,0,0],[0,1,0],[0.25,1,0],[0.5,1,0],[0.75,1,0],[1,1,0],[0,0.25,0],[0,0.5,0],[0,0.75,0],[1,0.25,0],[1,0.5,0],[1,0.75,0]];outlineConnect=0;fontColor=#232F3E;gradientColor=#945DF2;gradientDirection=north;fillColor=#5A30B5;strokeColor=#ffffff;dashed=0;verticalLabelPosition=bottom;verticalAlign=top;align=center;html=1;fontSize=12;fontStyle=0;aspect=fixed;shape=mxgraph.aws4.resourceIcon;resIcon=mxgraph.aws4.route_53;shadow=1;labelBackgroundColor=#;" vertex="1" parent="1">
          <mxGeometry x="7070" y="-935" width="68" height="68" as="geometry" />
        </mxCell>
        <mxCell id="HLCbXC__rA61MA5NDTQK-140" value="Private subnet" style="points=[[0,0],[0.25,0],[0.5,0],[0.75,0],[1,0],[1,0.25],[1,0.5],[1,0.75],[1,1],[0.75,1],[0.5,1],[0.25,1],[0,1],[0,0.75],[0,0.5],[0,0.25]];outlineConnect=0;gradientColor=none;html=1;whiteSpace=wrap;fontSize=12;fontStyle=0;container=1;pointerEvents=0;collapsible=0;recursiveResize=0;shape=mxgraph.aws4.group;grIcon=mxgraph.aws4.group_security_group;grStroke=0;strokeColor=#147EBA;fillColor=#E6F2F8;verticalAlign=top;align=left;spacingLeft=30;fontColor=#147EBA;dashed=0;" vertex="1" parent="1">
          <mxGeometry x="7467" y="1110" width="790" height="334" as="geometry" />
        </mxCell>
        <mxCell id="HLCbXC__rA61MA5NDTQK-141" value="&lt;p style=&quot;language:es-CL;margin-top:0pt;margin-bottom:0pt;margin-left:0in;&lt;br/&gt;text-align:left;direction:ltr;unicode-bidi:embed;vertical-align:bottom;&lt;br/&gt;mso-line-break-override:none;word-break:normal;punctuation-wrap:hanging&quot;&gt;Amazon&lt;br/&gt;RDS for PostgreSQL&lt;/p&gt;" style="sketch=0;outlineConnect=0;fontColor=#232F3E;gradientColor=none;fillColor=#2E27AD;strokeColor=none;dashed=0;verticalLabelPosition=bottom;verticalAlign=top;align=center;html=1;fontSize=12;fontStyle=0;aspect=fixed;pointerEvents=1;shape=mxgraph.aws4.rds_postgresql_instance;" vertex="1" parent="HLCbXC__rA61MA5NDTQK-140">
          <mxGeometry x="368" y="120" width="78" height="78" as="geometry" />
        </mxCell>
        <mxCell id="HLCbXC__rA61MA5NDTQK-142" value="Private subnet" style="points=[[0,0],[0.25,0],[0.5,0],[0.75,0],[1,0],[1,0.25],[1,0.5],[1,0.75],[1,1],[0.75,1],[0.5,1],[0.25,1],[0,1],[0,0.75],[0,0.5],[0,0.25]];outlineConnect=0;gradientColor=none;html=1;whiteSpace=wrap;fontSize=12;fontStyle=0;container=1;pointerEvents=0;collapsible=0;recursiveResize=0;shape=mxgraph.aws4.group;grIcon=mxgraph.aws4.group_security_group;grStroke=0;strokeColor=#147EBA;fillColor=#E6F2F8;verticalAlign=top;align=left;spacingLeft=30;fontColor=#147EBA;dashed=0;" vertex="1" parent="1">
          <mxGeometry x="6017" y="730" width="590" height="334" as="geometry" />
        </mxCell>
        <mxCell id="HLCbXC__rA61MA5NDTQK-143" value="" style="sketch=0;points=[[0,0,0],[0.25,0,0],[0.5,0,0],[0.75,0,0],[1,0,0],[0,1,0],[0.25,1,0],[0.5,1,0],[0.75,1,0],[1,1,0],[0,0.25,0],[0,0.5,0],[0,0.75,0],[1,0.25,0],[1,0.5,0],[1,0.75,0]];outlineConnect=0;fontColor=#232F3E;gradientColor=#F78E04;gradientDirection=north;fillColor=#D05C17;strokeColor=#ffffff;dashed=0;verticalLabelPosition=bottom;verticalAlign=top;align=center;html=1;fontSize=12;fontStyle=0;aspect=fixed;shape=mxgraph.aws4.resourceIcon;resIcon=mxgraph.aws4.ec2;" vertex="1" parent="HLCbXC__rA61MA5NDTQK-142">
          <mxGeometry x="59.99791208791248" y="99.99830508474577" width="78" height="78" as="geometry" />
        </mxCell>
        <mxCell id="HLCbXC__rA61MA5NDTQK-144" value="" style="sketch=0;points=[[0,0,0],[0.25,0,0],[0.5,0,0],[0.75,0,0],[1,0,0],[0,1,0],[0.25,1,0],[0.5,1,0],[0.75,1,0],[1,1,0],[0,0.25,0],[0,0.5,0],[0,0.75,0],[1,0.25,0],[1,0.5,0],[1,0.75,0]];outlineConnect=0;fontColor=#232F3E;gradientColor=#F78E04;gradientDirection=north;fillColor=#D05C17;strokeColor=#ffffff;dashed=0;verticalLabelPosition=bottom;verticalAlign=top;align=center;html=1;fontSize=12;fontStyle=0;aspect=fixed;shape=mxgraph.aws4.resourceIcon;resIcon=mxgraph.aws4.ec2;" vertex="1" parent="HLCbXC__rA61MA5NDTQK-142">
          <mxGeometry x="379.9979120879125" y="109.99830508474577" width="78" height="78" as="geometry" />
        </mxCell>
        <mxCell id="HLCbXC__rA61MA5NDTQK-146" value="APP SERVER" style="text;html=1;align=center;verticalAlign=middle;resizable=0;points=[];autosize=1;strokeColor=none;fillColor=none;" vertex="1" parent="HLCbXC__rA61MA5NDTQK-142">
          <mxGeometry x="49" y="70" width="100" height="30" as="geometry" />
        </mxCell>
        <mxCell id="HLCbXC__rA61MA5NDTQK-147" value="Interoperability Server" style="text;html=1;align=center;verticalAlign=middle;resizable=0;points=[];autosize=1;strokeColor=none;fillColor=none;" vertex="1" parent="HLCbXC__rA61MA5NDTQK-142">
          <mxGeometry x="360" y="70" width="140" height="30" as="geometry" />
        </mxCell>
        <mxCell id="HLCbXC__rA61MA5NDTQK-149" value="&lt;b style=&quot;font-size: 22px;&quot;&gt;DEV&amp;nbsp;&lt;/b&gt;&lt;b style=&quot;border-color: var(--border-color); font-size: 22px;&quot;&gt;&lt;font style=&quot;border-color: var(--border-color);&quot; face=&quot;Calibri&quot;&gt;EMPI + CSH&lt;/font&gt;&lt;/b&gt;" style="text;html=1;strokeColor=none;fillColor=none;align=center;verticalAlign=middle;whiteSpace=wrap;rounded=0;" vertex="1" parent="HLCbXC__rA61MA5NDTQK-142">
          <mxGeometry x="133" y="20" width="307" height="30" as="geometry" />
        </mxCell>
        <mxCell id="HLCbXC__rA61MA5NDTQK-150" value="Private subnet" style="points=[[0,0],[0.25,0],[0.5,0],[0.75,0],[1,0],[1,0.25],[1,0.5],[1,0.75],[1,1],[0.75,1],[0.5,1],[0.25,1],[0,1],[0,0.75],[0,0.5],[0,0.25]];outlineConnect=0;gradientColor=none;html=1;whiteSpace=wrap;fontSize=12;fontStyle=0;container=1;pointerEvents=0;collapsible=0;recursiveResize=0;shape=mxgraph.aws4.group;grIcon=mxgraph.aws4.group_security_group;grStroke=0;strokeColor=#147EBA;fillColor=#E6F2F8;verticalAlign=top;align=left;spacingLeft=30;fontColor=#147EBA;dashed=0;" vertex="1" parent="1">
          <mxGeometry x="6017" y="1110" width="590" height="334" as="geometry" />
        </mxCell>
        <mxCell id="HLCbXC__rA61MA5NDTQK-151" value="&lt;p style=&quot;language:es-CL;margin-top:0pt;margin-bottom:0pt;margin-left:0in;&lt;br/&gt;text-align:left;direction:ltr;unicode-bidi:embed;vertical-align:bottom;&lt;br/&gt;mso-line-break-override:none;word-break:normal;punctuation-wrap:hanging&quot;&gt;Amazon&lt;br/&gt;RDS for PostgreSQL&lt;/p&gt;" style="sketch=0;outlineConnect=0;fontColor=#232F3E;gradientColor=none;fillColor=#2E27AD;strokeColor=none;dashed=0;verticalLabelPosition=bottom;verticalAlign=top;align=center;html=1;fontSize=12;fontStyle=0;aspect=fixed;pointerEvents=1;shape=mxgraph.aws4.rds_postgresql_instance;" vertex="1" parent="HLCbXC__rA61MA5NDTQK-150">
          <mxGeometry x="250" y="120" width="78" height="78" as="geometry" />
        </mxCell>
        <mxCell id="HLCbXC__rA61MA5NDTQK-152" style="edgeStyle=orthogonalEdgeStyle;rounded=0;orthogonalLoop=1;jettySize=auto;html=1;" edge="1" parent="1" source="HLCbXC__rA61MA5NDTQK-143" target="HLCbXC__rA61MA5NDTQK-151">
          <mxGeometry relative="1" as="geometry">
            <Array as="points">
              <mxPoint x="6116" y="1000" />
              <mxPoint x="6306" y="1000" />
            </Array>
          </mxGeometry>
        </mxCell>
        <mxCell id="HLCbXC__rA61MA5NDTQK-153" style="edgeStyle=orthogonalEdgeStyle;rounded=0;orthogonalLoop=1;jettySize=auto;html=1;exitX=0.5;exitY=1;exitDx=0;exitDy=0;exitPerimeter=0;" edge="1" parent="1" source="HLCbXC__rA61MA5NDTQK-144" target="HLCbXC__rA61MA5NDTQK-151">
          <mxGeometry relative="1" as="geometry">
            <Array as="points">
              <mxPoint x="6436" y="1000" />
              <mxPoint x="6306" y="1000" />
            </Array>
          </mxGeometry>
        </mxCell>
        <mxCell id="HLCbXC__rA61MA5NDTQK-155" value="Private subnet" style="points=[[0,0],[0.25,0],[0.5,0],[0.75,0],[1,0],[1,0.25],[1,0.5],[1,0.75],[1,1],[0.75,1],[0.5,1],[0.25,1],[0,1],[0,0.75],[0,0.5],[0,0.25]];outlineConnect=0;gradientColor=none;html=1;whiteSpace=wrap;fontSize=12;fontStyle=0;container=1;pointerEvents=0;collapsible=0;recursiveResize=0;shape=mxgraph.aws4.group;grIcon=mxgraph.aws4.group_security_group;grStroke=0;strokeColor=#147EBA;fillColor=#E6F2F8;verticalAlign=top;align=left;spacingLeft=30;fontColor=#147EBA;dashed=0;" vertex="1" parent="1">
          <mxGeometry x="6727" y="730" width="590" height="334" as="geometry" />
        </mxCell>
        <mxCell id="HLCbXC__rA61MA5NDTQK-156" value="" style="sketch=0;points=[[0,0,0],[0.25,0,0],[0.5,0,0],[0.75,0,0],[1,0,0],[0,1,0],[0.25,1,0],[0.5,1,0],[0.75,1,0],[1,1,0],[0,0.25,0],[0,0.5,0],[0,0.75,0],[1,0.25,0],[1,0.5,0],[1,0.75,0]];outlineConnect=0;fontColor=#232F3E;gradientColor=#F78E04;gradientDirection=north;fillColor=#D05C17;strokeColor=#ffffff;dashed=0;verticalLabelPosition=bottom;verticalAlign=top;align=center;html=1;fontSize=12;fontStyle=0;aspect=fixed;shape=mxgraph.aws4.resourceIcon;resIcon=mxgraph.aws4.ec2;" vertex="1" parent="HLCbXC__rA61MA5NDTQK-155">
          <mxGeometry x="59.99791208791248" y="99.99830508474577" width="78" height="78" as="geometry" />
        </mxCell>
        <mxCell id="HLCbXC__rA61MA5NDTQK-157" value="" style="sketch=0;points=[[0,0,0],[0.25,0,0],[0.5,0,0],[0.75,0,0],[1,0,0],[0,1,0],[0.25,1,0],[0.5,1,0],[0.75,1,0],[1,1,0],[0,0.25,0],[0,0.5,0],[0,0.75,0],[1,0.25,0],[1,0.5,0],[1,0.75,0]];outlineConnect=0;fontColor=#232F3E;gradientColor=#F78E04;gradientDirection=north;fillColor=#D05C17;strokeColor=#ffffff;dashed=0;verticalLabelPosition=bottom;verticalAlign=top;align=center;html=1;fontSize=12;fontStyle=0;aspect=fixed;shape=mxgraph.aws4.resourceIcon;resIcon=mxgraph.aws4.ec2;" vertex="1" parent="HLCbXC__rA61MA5NDTQK-155">
          <mxGeometry x="439.9979120879125" y="99.99830508474577" width="78" height="78" as="geometry" />
        </mxCell>
        <mxCell id="HLCbXC__rA61MA5NDTQK-159" value="APP SERVER" style="text;html=1;align=center;verticalAlign=middle;resizable=0;points=[];autosize=1;strokeColor=none;fillColor=none;" vertex="1" parent="HLCbXC__rA61MA5NDTQK-155">
          <mxGeometry x="49" y="70" width="100" height="30" as="geometry" />
        </mxCell>
        <mxCell id="HLCbXC__rA61MA5NDTQK-160" value="Interoperability Server" style="text;html=1;align=center;verticalAlign=middle;resizable=0;points=[];autosize=1;strokeColor=none;fillColor=none;" vertex="1" parent="HLCbXC__rA61MA5NDTQK-155">
          <mxGeometry x="400" y="70" width="140" height="30" as="geometry" />
        </mxCell>
        <mxCell id="HLCbXC__rA61MA5NDTQK-162" value="&lt;b style=&quot;font-size: 22px;&quot;&gt;PRE&amp;nbsp;&lt;/b&gt;&lt;b style=&quot;border-color: var(--border-color); font-size: 22px;&quot;&gt;&lt;font style=&quot;border-color: var(--border-color);&quot; face=&quot;Calibri&quot;&gt;EMPI + CSH&lt;/font&gt;&lt;/b&gt;" style="text;html=1;strokeColor=none;fillColor=none;align=center;verticalAlign=middle;whiteSpace=wrap;rounded=0;" vertex="1" parent="HLCbXC__rA61MA5NDTQK-155">
          <mxGeometry x="138" y="20" width="307" height="30" as="geometry" />
        </mxCell>
        <mxCell id="HLCbXC__rA61MA5NDTQK-163" value="Private subnet" style="points=[[0,0],[0.25,0],[0.5,0],[0.75,0],[1,0],[1,0.25],[1,0.5],[1,0.75],[1,1],[0.75,1],[0.5,1],[0.25,1],[0,1],[0,0.75],[0,0.5],[0,0.25]];outlineConnect=0;gradientColor=none;html=1;whiteSpace=wrap;fontSize=12;fontStyle=0;container=1;pointerEvents=0;collapsible=0;recursiveResize=0;shape=mxgraph.aws4.group;grIcon=mxgraph.aws4.group_security_group;grStroke=0;strokeColor=#147EBA;fillColor=#E6F2F8;verticalAlign=top;align=left;spacingLeft=30;fontColor=#147EBA;dashed=0;" vertex="1" parent="1">
          <mxGeometry x="6727" y="1110" width="590" height="334" as="geometry" />
        </mxCell>
        <mxCell id="HLCbXC__rA61MA5NDTQK-164" value="&lt;p style=&quot;language:es-CL;margin-top:0pt;margin-bottom:0pt;margin-left:0in;&lt;br/&gt;text-align:left;direction:ltr;unicode-bidi:embed;vertical-align:bottom;&lt;br/&gt;mso-line-break-override:none;word-break:normal;punctuation-wrap:hanging&quot;&gt;Amazon&lt;br/&gt;RDS for PostgreSQL&lt;/p&gt;" style="sketch=0;outlineConnect=0;fontColor=#232F3E;gradientColor=none;fillColor=#2E27AD;strokeColor=none;dashed=0;verticalLabelPosition=bottom;verticalAlign=top;align=center;html=1;fontSize=12;fontStyle=0;aspect=fixed;pointerEvents=1;shape=mxgraph.aws4.rds_postgresql_instance;" vertex="1" parent="HLCbXC__rA61MA5NDTQK-163">
          <mxGeometry x="250" y="120" width="78" height="78" as="geometry" />
        </mxCell>
        <mxCell id="HLCbXC__rA61MA5NDTQK-165" style="edgeStyle=orthogonalEdgeStyle;rounded=0;orthogonalLoop=1;jettySize=auto;html=1;" edge="1" parent="1" source="HLCbXC__rA61MA5NDTQK-156" target="HLCbXC__rA61MA5NDTQK-164">
          <mxGeometry relative="1" as="geometry">
            <Array as="points">
              <mxPoint x="6826" y="1000" />
              <mxPoint x="7016" y="1000" />
            </Array>
          </mxGeometry>
        </mxCell>
        <mxCell id="HLCbXC__rA61MA5NDTQK-166" style="edgeStyle=orthogonalEdgeStyle;rounded=0;orthogonalLoop=1;jettySize=auto;html=1;exitX=0.5;exitY=1;exitDx=0;exitDy=0;exitPerimeter=0;" edge="1" parent="1" source="HLCbXC__rA61MA5NDTQK-157" target="HLCbXC__rA61MA5NDTQK-164">
          <mxGeometry relative="1" as="geometry">
            <Array as="points">
              <mxPoint x="7206" y="1000" />
              <mxPoint x="7016" y="1000" />
            </Array>
          </mxGeometry>
        </mxCell>
        <mxCell id="HLCbXC__rA61MA5NDTQK-168" value="Private subnet" style="points=[[0,0],[0.25,0],[0.5,0],[0.75,0],[1,0],[1,0.25],[1,0.5],[1,0.75],[1,1],[0.75,1],[0.5,1],[0.25,1],[0,1],[0,0.75],[0,0.5],[0,0.25]];outlineConnect=0;gradientColor=none;html=1;whiteSpace=wrap;fontSize=12;fontStyle=0;container=1;pointerEvents=0;collapsible=0;recursiveResize=0;shape=mxgraph.aws4.group;grIcon=mxgraph.aws4.group_security_group;grStroke=0;strokeColor=#147EBA;fillColor=#E6F2F8;verticalAlign=top;align=left;spacingLeft=30;fontColor=#147EBA;dashed=0;" vertex="1" parent="1">
          <mxGeometry x="7460" y="580" width="800" height="494" as="geometry" />
        </mxCell>
        <mxCell id="HLCbXC__rA61MA5NDTQK-169" value="" style="rounded=1;arcSize=10;dashed=1;strokeColor=#ff0000;fillColor=none;gradientColor=none;dashPattern=8 4;strokeWidth=2;" vertex="1" parent="HLCbXC__rA61MA5NDTQK-168">
          <mxGeometry x="40" y="190" width="220" height="250.5" as="geometry" />
        </mxCell>
        <mxCell id="HLCbXC__rA61MA5NDTQK-171" value="" style="sketch=0;points=[[0,0,0],[0.25,0,0],[0.5,0,0],[0.75,0,0],[1,0,0],[0,1,0],[0.25,1,0],[0.5,1,0],[0.75,1,0],[1,1,0],[0,0.25,0],[0,0.5,0],[0,0.75,0],[1,0.25,0],[1,0.5,0],[1,0.75,0]];outlineConnect=0;fontColor=#232F3E;gradientColor=#F78E04;gradientDirection=north;fillColor=#D05C17;strokeColor=#ffffff;dashed=0;verticalLabelPosition=bottom;verticalAlign=top;align=center;html=1;fontSize=12;fontStyle=0;aspect=fixed;shape=mxgraph.aws4.resourceIcon;resIcon=mxgraph.aws4.ec2;" vertex="1" parent="HLCbXC__rA61MA5NDTQK-168">
          <mxGeometry x="566.9979120879125" y="249.99830508474577" width="78" height="78" as="geometry" />
        </mxCell>
        <mxCell id="HLCbXC__rA61MA5NDTQK-173" value="APP SERVER" style="text;html=1;align=center;verticalAlign=middle;resizable=0;points=[];autosize=1;strokeColor=none;fillColor=none;" vertex="1" parent="HLCbXC__rA61MA5NDTQK-168">
          <mxGeometry x="100" y="210" width="100" height="30" as="geometry" />
        </mxCell>
        <mxCell id="HLCbXC__rA61MA5NDTQK-174" value="Interoperability Server" style="text;html=1;align=center;verticalAlign=middle;resizable=0;points=[];autosize=1;strokeColor=none;fillColor=none;" vertex="1" parent="HLCbXC__rA61MA5NDTQK-168">
          <mxGeometry x="587" y="220" width="140" height="30" as="geometry" />
        </mxCell>
        <mxCell id="HLCbXC__rA61MA5NDTQK-176" value="" style="sketch=0;points=[[0,0,0],[0.25,0,0],[0.5,0,0],[0.75,0,0],[1,0,0],[0,1,0],[0.25,1,0],[0.5,1,0],[0.75,1,0],[1,1,0],[0,0.25,0],[0,0.5,0],[0,0.75,0],[1,0.25,0],[1,0.5,0],[1,0.75,0]];outlineConnect=0;fontColor=#232F3E;gradientColor=#F78E04;gradientDirection=north;fillColor=#D05C17;strokeColor=#ffffff;dashed=0;verticalLabelPosition=bottom;verticalAlign=top;align=center;html=1;fontSize=12;fontStyle=0;aspect=fixed;shape=mxgraph.aws4.resourceIcon;resIcon=mxgraph.aws4.ec2;" vertex="1" parent="HLCbXC__rA61MA5NDTQK-168">
          <mxGeometry x="656.9979120879125" y="249.99830508474577" width="78" height="78" as="geometry" />
        </mxCell>
        <mxCell id="HLCbXC__rA61MA5NDTQK-179" value="" style="sketch=0;points=[[0,0,0],[0.25,0,0],[0.5,0,0],[0.75,0,0],[1,0,0],[0,1,0],[0.25,1,0],[0.5,1,0],[0.75,1,0],[1,1,0],[0,0.25,0],[0,0.5,0],[0,0.75,0],[1,0.25,0],[1,0.5,0],[1,0.75,0]];outlineConnect=0;fontColor=#232F3E;gradientColor=#F78E04;gradientDirection=north;fillColor=#D05C17;strokeColor=#ffffff;dashed=0;verticalLabelPosition=bottom;verticalAlign=top;align=center;html=1;fontSize=12;fontStyle=0;aspect=fixed;shape=mxgraph.aws4.resourceIcon;resIcon=mxgraph.aws4.ec2;" vertex="1" parent="HLCbXC__rA61MA5NDTQK-168">
          <mxGeometry x="59.99791208791248" y="249.99830508474577" width="78" height="78" as="geometry" />
        </mxCell>
        <mxCell id="HLCbXC__rA61MA5NDTQK-180" value="" style="sketch=0;points=[[0,0,0],[0.25,0,0],[0.5,0,0],[0.75,0,0],[1,0,0],[0,1,0],[0.25,1,0],[0.5,1,0],[0.75,1,0],[1,1,0],[0,0.25,0],[0,0.5,0],[0,0.75,0],[1,0.25,0],[1,0.5,0],[1,0.75,0]];outlineConnect=0;fontColor=#232F3E;gradientColor=#F78E04;gradientDirection=north;fillColor=#D05C17;strokeColor=#ffffff;dashed=0;verticalLabelPosition=bottom;verticalAlign=top;align=center;html=1;fontSize=12;fontStyle=0;aspect=fixed;shape=mxgraph.aws4.resourceIcon;resIcon=mxgraph.aws4.ec2;" vertex="1" parent="HLCbXC__rA61MA5NDTQK-168">
          <mxGeometry x="146.99791208791248" y="249.99830508474577" width="78" height="78" as="geometry" />
        </mxCell>
        <mxCell id="HLCbXC__rA61MA5NDTQK-182" style="edgeStyle=orthogonalEdgeStyle;rounded=0;orthogonalLoop=1;jettySize=auto;html=1;endArrow=none;endFill=0;exitX=0.5;exitY=1;exitDx=0;exitDy=0;" edge="1" parent="HLCbXC__rA61MA5NDTQK-168" source="HLCbXC__rA61MA5NDTQK-169">
          <mxGeometry relative="1" as="geometry">
            <mxPoint x="417" y="630" as="targetPoint" />
            <Array as="points">
              <mxPoint x="147" y="440" />
              <mxPoint x="147" y="520" />
              <mxPoint x="418" y="520" />
              <mxPoint x="418" y="630" />
            </Array>
          </mxGeometry>
        </mxCell>
        <mxCell id="HLCbXC__rA61MA5NDTQK-183" value="" style="rounded=1;arcSize=10;dashed=1;strokeColor=#ff0000;fillColor=none;gradientColor=none;dashPattern=8 4;strokeWidth=2;" vertex="1" parent="HLCbXC__rA61MA5NDTQK-168">
          <mxGeometry x="537" y="198" width="223" height="242.5" as="geometry" />
        </mxCell>
        <mxCell id="HLCbXC__rA61MA5NDTQK-185" value="&lt;b style=&quot;font-size: 22px;&quot;&gt;PRO &lt;font face=&quot;Calibri&quot;&gt;EMPI + CSH&lt;/font&gt;&lt;/b&gt;" style="text;html=1;strokeColor=none;fillColor=none;align=center;verticalAlign=middle;whiteSpace=wrap;rounded=0;" vertex="1" parent="HLCbXC__rA61MA5NDTQK-168">
          <mxGeometry x="207" y="10" width="307" height="30" as="geometry" />
        </mxCell>
        <mxCell id="HLCbXC__rA61MA5NDTQK-186" style="edgeStyle=orthogonalEdgeStyle;rounded=0;orthogonalLoop=1;jettySize=auto;html=1;exitX=0.5;exitY=1;exitDx=0;exitDy=0;" edge="1" parent="1" source="HLCbXC__rA61MA5NDTQK-183">
          <mxGeometry relative="1" as="geometry">
            <mxPoint x="7877" y="1230" as="targetPoint" />
            <Array as="points">
              <mxPoint x="8109" y="1100" />
              <mxPoint x="7877" y="1100" />
            </Array>
          </mxGeometry>
        </mxCell>
        <mxCell id="HLCbXC__rA61MA5NDTQK-190" style="edgeStyle=orthogonalEdgeStyle;rounded=0;orthogonalLoop=1;jettySize=auto;html=1;entryX=0.527;entryY=0.04;entryDx=0;entryDy=0;entryPerimeter=0;" edge="1" parent="1" source="HLCbXC__rA61MA5NDTQK-188" target="HLCbXC__rA61MA5NDTQK-169">
          <mxGeometry relative="1" as="geometry" />
        </mxCell>
        <mxCell id="HLCbXC__rA61MA5NDTQK-188" value="" style="sketch=0;outlineConnect=0;fontColor=#232F3E;gradientColor=none;fillColor=#4D27AA;strokeColor=none;dashed=0;verticalLabelPosition=bottom;verticalAlign=top;align=center;html=1;fontSize=12;fontStyle=0;aspect=fixed;pointerEvents=1;shape=mxgraph.aws4.application_load_balancer;" vertex="1" parent="1">
          <mxGeometry x="7577" y="480" width="78" height="78" as="geometry" />
        </mxCell>
        <mxCell id="HLCbXC__rA61MA5NDTQK-270" value="AWS Cloud" style="points=[[0,0],[0.25,0],[0.5,0],[0.75,0],[1,0],[1,0.25],[1,0.5],[1,0.75],[1,1],[0.75,1],[0.5,1],[0.25,1],[0,1],[0,0.75],[0,0.5],[0,0.25]];outlineConnect=0;gradientColor=none;html=1;whiteSpace=wrap;fontSize=12;fontStyle=0;container=1;pointerEvents=0;collapsible=0;recursiveResize=0;shape=mxgraph.aws4.group;grIcon=mxgraph.aws4.group_aws_cloud_alt;strokeColor=#232F3E;fillColor=none;verticalAlign=top;align=left;spacingLeft=30;fontColor=#232F3E;dashed=0;" vertex="1" parent="1">
          <mxGeometry x="5430" y="-1120" width="3200" height="2830" as="geometry" />
        </mxCell>
        <mxCell id="HLCbXC__rA61MA5NDTQK-272" value="Region" style="points=[[0,0],[0.25,0],[0.5,0],[0.75,0],[1,0],[1,0.25],[1,0.5],[1,0.75],[1,1],[0.75,1],[0.5,1],[0.25,1],[0,1],[0,0.75],[0,0.5],[0,0.25]];outlineConnect=0;gradientColor=none;html=1;whiteSpace=wrap;fontSize=12;fontStyle=0;container=1;pointerEvents=0;collapsible=0;recursiveResize=0;shape=mxgraph.aws4.group;grIcon=mxgraph.aws4.group_region;strokeColor=#147EBA;fillColor=none;verticalAlign=top;align=left;spacingLeft=30;fontColor=#147EBA;dashed=1;" vertex="1" parent="HLCbXC__rA61MA5NDTQK-270">
          <mxGeometry x="35" y="40" width="3130" height="2750" as="geometry" />
        </mxCell>
        <mxCell id="HLCbXC__rA61MA5NDTQK-271" value="VPC" style="points=[[0,0],[0.25,0],[0.5,0],[0.75,0],[1,0],[1,0.25],[1,0.5],[1,0.75],[1,1],[0.75,1],[0.5,1],[0.25,1],[0,1],[0,0.75],[0,0.5],[0,0.25]];outlineConnect=0;gradientColor=none;html=1;whiteSpace=wrap;fontSize=12;fontStyle=0;container=1;pointerEvents=0;collapsible=0;recursiveResize=0;shape=mxgraph.aws4.group;grIcon=mxgraph.aws4.group_vpc;strokeColor=#248814;fillColor=none;verticalAlign=top;align=left;spacingLeft=30;fontColor=#AAB7B8;dashed=0;" vertex="1" parent="HLCbXC__rA61MA5NDTQK-272">
          <mxGeometry x="30" y="40" width="3040" height="2620" as="geometry" />
        </mxCell>
        <mxCell id="HLCbXC__rA61MA5NDTQK-193" value="" style="sketch=0;points=[[0,0,0],[0.25,0,0],[0.5,0,0],[0.75,0,0],[1,0,0],[0,1,0],[0.25,1,0],[0.5,1,0],[0.75,1,0],[1,1,0],[0,0.25,0],[0,0.5,0],[0,0.75,0],[1,0.25,0],[1,0.5,0],[1,0.75,0]];outlineConnect=0;fontColor=#232F3E;gradientColor=#F54749;gradientDirection=north;fillColor=#C7131F;strokeColor=#ffffff;dashed=0;verticalLabelPosition=bottom;verticalAlign=top;align=center;html=1;fontSize=12;fontStyle=0;aspect=fixed;shape=mxgraph.aws4.resourceIcon;resIcon=mxgraph.aws4.secrets_manager;" vertex="1" parent="HLCbXC__rA61MA5NDTQK-271">
          <mxGeometry x="2481.25" y="100" width="78" height="78" as="geometry" />
        </mxCell>
        <mxCell id="HLCbXC__rA61MA5NDTQK-87" value="" style="sketch=0;points=[[0,0,0],[0.25,0,0],[0.5,0,0],[0.75,0,0],[1,0,0],[0,1,0],[0.25,1,0],[0.5,1,0],[0.75,1,0],[1,1,0],[0,0.25,0],[0,0.5,0],[0,0.75,0],[1,0.25,0],[1,0.5,0],[1,0.75,0]];points=[[0,0,0],[0.25,0,0],[0.5,0,0],[0.75,0,0],[1,0,0],[0,1,0],[0.25,1,0],[0.5,1,0],[0.75,1,0],[1,1,0],[0,0.25,0],[0,0.5,0],[0,0.75,0],[1,0.25,0],[1,0.5,0],[1,0.75,0]];outlineConnect=0;fontColor=#232F3E;gradientColor=#F34482;gradientDirection=north;fillColor=#BC1356;strokeColor=#ffffff;dashed=0;verticalLabelPosition=bottom;verticalAlign=top;align=center;html=1;fontSize=12;fontStyle=0;aspect=fixed;shape=mxgraph.aws4.resourceIcon;resIcon=mxgraph.aws4.systems_manager;" vertex="1" parent="HLCbXC__rA61MA5NDTQK-271">
          <mxGeometry x="2588.25" y="100" width="78" height="78" as="geometry" />
        </mxCell>
        <mxCell id="HLCbXC__rA61MA5NDTQK-86" value="" style="outlineConnect=0;dashed=0;verticalLabelPosition=bottom;verticalAlign=top;align=center;html=1;shape=mxgraph.aws3.cloudwatch;fillColor=#759C3E;gradientColor=none;" vertex="1" parent="HLCbXC__rA61MA5NDTQK-271">
          <mxGeometry x="2479" y="203" width="82.5" height="93" as="geometry" />
        </mxCell>
        <mxCell id="HLCbXC__rA61MA5NDTQK-83" value="" style="sketch=0;points=[[0,0,0],[0.25,0,0],[0.5,0,0],[0.75,0,0],[1,0,0],[0,1,0],[0.25,1,0],[0.5,1,0],[0.75,1,0],[1,1,0],[0,0.25,0],[0,0.5,0],[0,0.75,0],[1,0.25,0],[1,0.5,0],[1,0.75,0]];outlineConnect=0;fontColor=#232F3E;gradientColor=#60A337;gradientDirection=north;fillColor=#277116;strokeColor=#ffffff;dashed=0;verticalLabelPosition=bottom;verticalAlign=top;align=center;html=1;fontSize=12;fontStyle=0;aspect=fixed;shape=mxgraph.aws4.resourceIcon;resIcon=mxgraph.aws4.backup;" vertex="1" parent="HLCbXC__rA61MA5NDTQK-271">
          <mxGeometry x="2588.25" y="203" width="78" height="78" as="geometry" />
        </mxCell>
      </root>
    </mxGraphModel>
  </diagram>
</mxfile>
